<svg width="408" height="498" viewBox="0 0 408 498" fill="none" xmlns="http://www.w3.org/2000/svg">
<g filter="url(#filter0_d)">
<path opacity="0.08" d="M203.987 490C294.432 490 367.753 473.747 367.753 453.697C367.753 433.648 294.432 417.395 203.987 417.395C113.541 417.395 40.2207 433.648 40.2207 453.697C40.2207 473.747 113.541 490 203.987 490Z" fill="black"/>
<path d="M401.214 169.725C401.214 169.002 401.169 168.285 401.136 167.569C401.104 166.852 401.078 166.316 401.046 165.697C401.046 165.219 400.994 164.748 400.955 164.277C400.955 163.915 400.91 163.554 400.884 163.199C400.839 162.508 400.781 161.817 400.723 161.127C400.665 160.436 400.594 159.7 400.523 158.99C400.452 158.28 400.387 157.654 400.31 156.989C400.232 156.324 400.168 155.775 400.09 155.169C400.013 154.562 399.935 153.936 399.845 153.316C399.754 152.696 399.696 152.225 399.612 151.683L399.516 151.038C399.419 150.444 399.328 149.85 399.225 149.256C399.122 148.662 399.051 148.197 398.954 147.668C398.857 147.139 398.754 146.532 398.644 145.97C398.566 145.544 398.482 145.125 398.398 144.679L398.166 143.524L398.03 142.878C397.921 142.33 397.804 141.781 397.675 141.232C397.678 141.181 397.678 141.129 397.675 141.077C397.578 140.626 397.475 140.167 397.365 139.716C397.236 139.147 397.107 138.586 396.965 138.024C396.823 137.463 396.732 137.069 396.61 136.598C396.487 136.127 396.384 135.688 396.261 135.242C396.255 135.202 396.244 135.163 396.229 135.126C396.061 134.481 395.893 133.835 395.712 133.19C395.531 132.544 395.376 131.97 395.196 131.369C394.95 130.524 394.698 129.678 394.44 128.839L394.014 127.47C393.584 126.115 393.134 124.77 392.664 123.436C392.019 121.564 391.328 119.712 390.611 117.865C390.086 116.536 389.55 115.217 389.003 113.909C388.457 112.6 387.912 111.352 387.37 110.165C386.814 108.917 386.24 107.682 385.646 106.46C385.058 105.233 384.457 104.013 383.831 102.8C383.521 102.193 383.185 101.586 382.888 100.986C382.591 100.385 382.243 99.7787 381.926 99.1849C381.61 98.591 381.281 97.9842 380.938 97.3904C380.596 96.7965 380.293 96.2027 379.931 95.6088C379.569 95.015 379.285 94.4276 378.904 93.8401C378.523 93.2527 378.207 92.6653 377.852 92.0844C377.497 91.5035 377.206 91.0129 376.87 90.4836L376.715 90.2318C376.399 89.7219 376.07 89.2119 375.753 88.7085L375.643 88.5342C375.288 87.979 374.933 87.4304 374.572 86.8817C374.21 86.333 373.816 85.7392 373.435 85.1711C373.054 84.6031 372.673 84.0415 372.279 83.4735L371.104 81.7887C370.723 81.2465 370.336 80.7108 369.942 80.1685L369.864 80.0524L368.696 78.4644C367.878 77.3628 367.047 76.2698 366.203 75.1853C365.777 74.6431 365.357 74.1009 364.912 73.5651C364.051 72.485 363.19 71.4092 362.329 70.3377C361.037 68.7497 359.688 67.1876 358.28 65.6514C356.451 63.5987 354.565 61.5826 352.624 59.6031C351.143 58.1744 349.656 56.7392 348.162 55.2976L346.651 53.8711C344.662 52.0056 342.622 50.1853 340.549 48.4102L340 47.939C339.09 47.1708 338.173 46.4027 337.243 45.6474L335.745 44.4275L335.532 44.2596L334.085 43.1107L333.93 42.9945L332.323 41.7551L330.657 40.4641L328.971 39.2183C328.409 38.8052 327.841 38.3985 327.273 37.9919C326.705 37.5852 326.117 37.2173 325.562 36.8042C325.007 36.391 324.413 36.0102 323.838 35.6165L322.094 34.4416L320.338 33.2862L318.659 32.2082L316.541 30.9172L314.985 29.9684L313.048 28.7936L311.356 27.8124C310.71 27.4638 310.136 27.1153 309.516 26.7732C308.896 26.431 308.289 26.0889 307.669 25.7533L305.81 24.7528C303.93 23.7522 302.032 22.8163 300.121 21.848C298.862 21.2413 297.596 20.6345 296.324 20.0471C292.398 18.2397 288.408 16.5593 284.352 15.0058L282.57 14.3603L280.988 13.7858C279.792 13.3555 278.595 12.938 277.398 12.5335L275.848 12.0171C275.338 11.8493 274.828 11.6815 274.318 11.5266C273.672 11.3265 273.072 11.1263 272.445 10.9392C271.819 10.752 271.083 10.5196 270.392 10.2937L268.326 9.69335H268.294L266.705 9.25441L265.569 8.95103C265.104 8.82193 264.632 8.69929 264.167 8.5831L262.23 8.09252C261.449 7.89887 260.661 7.71168 259.88 7.53094C259.234 7.37602 258.55 7.2211 257.885 7.07909C257.22 6.93708 256.632 6.80153 255.999 6.67243C253.201 6.10439 250.386 5.58369 247.553 5.11033L246.346 4.92314C245.932 4.85213 245.519 4.78758 245.099 4.72949C244.454 4.62621 243.776 4.53584 243.111 4.44547L242.084 4.30992C240.941 4.155 239.792 4.01299 238.642 3.88389C237.725 3.78061 236.802 3.68379 235.879 3.59987L234.148 3.4385C233.464 3.37395 232.773 3.32231 232.088 3.27067L229.899 3.11575L227.923 2.99956H227.704C224.566 2.83819 221.402 2.75427 218.231 2.75427C109.144 2.75427 -15.5172 90.4448 10.0789 230.55C27.0547 323.456 124.415 392.717 203.522 453.691L206.75 451.328L208.526 450.037L211.832 447.617L215.971 444.564C217.353 443.55 218.722 442.53 220.097 441.504C224.376 438.315 228.621 435.109 232.831 431.886C233.967 431.015 235.097 430.15 236.227 429.304C237.949 427.987 239.65 426.664 241.328 425.334L244.396 422.927L247.314 420.616C248.438 419.725 249.555 418.83 250.666 417.931C251.492 417.268 252.316 416.601 253.139 415.93L256.083 413.535L256.496 413.199L259.699 410.546L260.797 409.636L263.832 407.099L264.142 406.834C265.373 405.802 266.6 404.762 267.822 403.717C269.081 402.645 270.34 401.567 271.587 400.489L271.69 400.405L274.919 397.565L275.958 396.655C276.922 395.794 277.882 394.934 278.838 394.073L279.387 393.582C280.375 392.705 281.356 391.814 282.338 390.923C282.712 390.587 283.087 390.278 283.461 389.897C284.185 389.251 284.908 388.606 285.624 387.921C286.27 387.36 286.864 386.785 287.478 386.204C288.091 385.623 288.646 385.126 289.228 384.578L290.835 383.067C291.623 382.325 292.411 381.583 293.192 380.827L294.109 379.95L296.95 377.206L297.596 376.561L299.791 374.405C300.502 373.708 301.208 373.004 301.909 372.294C302.342 371.868 302.768 371.435 303.201 371.003C303.808 370.396 304.402 369.789 304.989 369.183C305.687 368.479 306.378 367.776 307.049 367.066C307.43 366.685 307.798 366.304 308.16 365.923C308.909 365.148 309.649 364.374 310.381 363.599C310.814 363.154 311.24 362.702 311.673 362.25C312.34 361.549 313.001 360.843 313.655 360.133C314.128 359.629 314.593 359.126 315.05 358.622C315.766 357.848 316.483 357.067 317.187 356.286C317.529 355.918 317.865 355.543 318.194 355.169C318.853 354.455 319.499 353.734 320.131 353.007C320.713 352.361 321.287 351.716 321.855 351.07C322.224 350.657 322.585 350.25 322.934 349.837C323.795 348.856 324.656 347.868 325.517 346.874C326.569 345.648 327.609 344.422 328.635 343.182L330.179 341.323L330.941 340.394C331.341 339.912 331.735 339.428 332.122 338.941C333.285 337.508 334.434 336.071 335.57 334.629C335.945 334.158 336.319 333.68 336.688 333.203C338.517 330.862 340.314 328.495 342.079 326.102C342.564 325.457 343.041 324.811 343.513 324.166L344.933 322.229C345.405 321.584 345.876 320.938 346.341 320.293C346.806 319.647 347.277 319.002 347.736 318.318C348.194 317.633 348.659 317.027 349.117 316.336C350.105 314.909 351.055 313.47 352.043 312.031C352.424 311.456 352.805 310.888 353.179 310.314C353.554 309.739 354.057 308.984 354.47 308.319L354.516 308.248C354.948 307.602 355.375 306.918 355.807 306.247C356.24 305.576 356.679 304.878 357.099 304.194C357.518 303.51 357.957 302.826 358.39 302.135C358.823 301.444 359.242 300.754 359.681 300.063L360.973 297.978C362.226 295.887 363.455 293.78 364.66 291.659C365.069 290.949 365.469 290.239 365.861 289.529C367.936 285.819 369.942 282.056 371.879 278.239C372.163 277.664 372.454 277.09 372.744 276.515C373.358 275.282 373.971 274.037 374.572 272.791C374.83 272.262 375.082 271.739 375.327 271.209C375.572 270.68 375.773 270.273 375.973 269.802C377.032 267.556 378.065 265.29 379.072 263.005C379.408 262.243 379.718 261.475 380.073 260.707C380.428 259.939 380.719 259.235 381.022 258.5C382.068 256.012 383.086 253.503 384.076 250.973C384.335 250.332 384.587 249.686 384.832 249.037C385.135 248.249 385.439 247.455 385.736 246.661C388.693 238.782 391.367 230.666 393.756 222.313C394.001 221.461 394.24 220.603 394.479 219.731C395.663 215.428 396.769 211.075 397.798 206.673C400.435 194.541 401.582 182.134 401.214 169.725ZM304.208 218.343C302.187 230.905 297.644 242.928 290.853 253.689C284.061 264.449 275.162 273.725 264.69 280.956C247.235 295.665 225.673 304.643 202.934 306.673C152.368 310.778 110.332 258.009 103.436 212.592C94.1379 151.154 143.412 89.6832 207.893 94.0467C219.285 94.7963 230.468 97.4609 240.973 101.928C285.082 120.719 312.37 169.337 304.208 218.343Z" fill="#F4F4FF"/>
<path d="M397.738 206.673C396.713 211.092 395.607 215.445 394.419 219.731C394.18 220.59 393.941 221.448 393.696 222.313C391.32 230.661 388.646 238.773 385.676 246.648C385.379 247.442 385.075 248.236 384.772 249.024C384.527 249.673 384.275 250.319 384.017 250.96C383.031 253.495 382.013 256.004 380.962 258.487C380.646 259.222 380.317 259.965 380.013 260.694C379.71 261.424 379.367 262.23 379.012 262.992C378.005 265.277 376.972 267.543 375.913 269.789C375.693 270.26 375.474 270.732 375.267 271.196C375.06 271.661 374.77 272.249 374.512 272.778C373.911 274.024 373.298 275.269 372.684 276.502C372.394 277.077 372.103 277.651 371.819 278.226C369.882 282.043 367.876 285.806 365.801 289.516C365.409 290.226 365.009 290.936 364.6 291.646C363.395 293.767 362.166 295.874 360.913 297.965L359.621 300.05C359.202 300.741 358.776 301.431 358.33 302.122C357.884 302.813 357.478 303.497 357.039 304.181C356.599 304.865 356.173 305.55 355.747 306.234C355.321 306.918 354.895 307.57 354.456 308.235L354.41 308.306C353.978 308.951 353.539 309.636 353.119 310.301C352.699 310.965 352.364 311.443 351.983 312.018C351.02 313.457 350.045 314.896 349.058 316.323C348.599 316.968 348.141 317.646 347.676 318.305C347.211 318.963 346.752 319.596 346.281 320.28C345.81 320.964 345.345 321.571 344.873 322.216L343.453 324.153C342.981 324.798 342.504 325.444 342.019 326.089C340.254 328.469 338.457 330.836 336.628 333.19C336.259 333.667 335.885 334.145 335.51 334.616C334.374 336.062 333.225 337.5 332.062 338.928C331.675 339.415 331.281 339.899 330.881 340.381L330.119 341.31L328.575 343.169C327.549 344.409 326.509 345.635 325.457 346.861C324.596 347.855 323.735 348.843 322.874 349.824C322.525 350.237 322.164 350.644 321.795 351.057C321.227 351.703 320.653 352.348 320.071 352.994C319.49 353.639 318.78 354.44 318.134 355.156C317.805 355.53 317.489 355.905 317.127 356.273C316.423 357.054 315.706 357.835 314.99 358.609C314.533 359.113 314.068 359.616 313.595 360.12C312.936 360.83 312.275 361.536 311.613 362.237C311.193 362.689 310.767 363.141 310.321 363.586C309.589 364.361 308.849 365.135 308.1 365.91C307.738 366.291 307.37 366.672 306.989 367.052C306.344 367.763 305.627 368.466 304.929 369.17C304.342 369.776 303.748 370.383 303.141 370.99C302.715 371.422 302.288 371.855 301.849 372.281C301.143 372.991 300.437 373.695 299.731 374.392L297.536 376.548L296.89 377.193L294.049 379.937L293.203 380.853C292.422 381.608 291.634 382.351 290.846 383.093L289.239 384.604C288.657 385.152 288.076 385.694 287.489 386.23C286.901 386.766 286.255 387.386 285.635 387.947C284.919 388.593 284.196 389.277 283.472 389.922C283.098 390.277 282.723 390.613 282.349 390.949C281.367 391.84 280.412 392.73 279.398 393.608L278.849 394.099C277.893 394.959 276.933 395.82 275.969 396.681L274.93 397.591L271.701 400.431L271.598 400.515C270.351 401.599 269.092 402.677 267.833 403.742C266.574 404.808 265.386 405.827 264.153 406.86L263.843 407.125L260.808 409.662L259.697 410.546L256.52 413.167L256.107 413.502L253.163 415.897C252.345 416.568 251.52 417.235 250.689 417.898C249.579 418.793 248.462 419.688 247.338 420.583L244.42 422.894L241.352 425.302C239.661 426.632 237.96 427.955 236.251 429.272C235.121 430.15 233.991 431.015 232.855 431.854C228.645 435.081 224.4 438.287 220.121 441.472C218.746 442.498 217.377 443.518 215.995 444.531L211.856 447.585L208.55 450.005L206.774 451.296C211.798 424.928 218.397 398.83 223.937 372.546C229.103 347.974 233.259 323.23 236.406 298.314C246.671 294.014 256.213 288.16 264.695 280.956C275.167 273.724 284.066 264.449 290.857 253.689C297.649 242.928 302.192 230.905 304.213 218.343C312.375 169.337 285.087 120.712 240.933 101.928C238.268 68.7377 233.852 35.7112 227.702 2.98657H227.922L229.897 3.10276L232.086 3.25768C232.771 3.30932 233.462 3.36096 234.146 3.42551L235.877 3.58688C236.8 3.6708 237.723 3.76762 238.64 3.8709C239.79 4 240.939 4.14201 242.082 4.29693L243.109 4.43248C243.754 4.52285 244.439 4.61322 245.098 4.7165C245.517 4.77459 245.931 4.83914 246.344 4.91015L247.551 5.09734C250.379 5.55349 253.193 6.07634 255.991 6.6659C256.636 6.795 257.25 6.93055 257.876 7.07256C258.503 7.21457 259.206 7.36949 259.871 7.52441C260.653 7.70514 261.441 7.89234 262.222 8.08599L264.159 8.57656C264.624 8.69275 265.095 8.8154 265.56 8.9445L266.697 9.24788L268.285 9.68681H268.317L270.364 10.2807C271.057 10.4829 271.742 10.6981 272.418 10.9262C273.063 11.1134 273.67 11.3135 274.29 11.5136C274.8 11.6685 275.311 11.8363 275.821 12.0041L277.37 12.5205C278.571 12.9207 279.768 13.3382 280.961 13.7728L282.543 14.3473L284.325 14.9928C288.38 16.542 292.37 18.2224 296.296 20.0341C297.588 20.6215 298.834 21.2283 300.093 21.835C302.03 22.7775 303.903 23.7715 305.782 24.7398L307.641 25.7403C308.287 26.0759 308.875 26.3858 309.488 26.7602C310.102 27.1346 310.715 27.4508 311.328 27.7994L312.988 28.7612L314.925 29.936L316.52 30.8978L318.638 32.1888L320.317 33.2668L322.073 34.4222L323.817 35.597C324.391 35.9908 324.972 36.3845 325.541 36.7847C326.109 37.1849 326.69 37.5851 327.258 37.9918C327.826 38.3985 328.395 38.8051 328.956 39.2182L330.642 40.464L332.308 41.755L333.916 42.9944L334.07 43.1106L335.517 44.2596L335.73 44.4274L337.228 45.6474C338.158 46.4026 339.075 47.1707 339.985 47.9389L340.534 48.4101C342.605 50.1917 344.639 52.012 346.636 53.871L348.16 55.2975C349.649 56.7219 351.12 58.1721 352.57 59.6482C354.503 61.6234 356.389 63.6395 358.227 65.6965C359.602 67.2392 360.958 68.8013 362.275 70.3828C363.158 71.4414 364.019 72.5172 364.858 73.6102C365.291 74.146 365.71 74.6882 366.15 75.2304C367.011 76.3149 367.841 77.4079 368.642 78.5095L369.811 80.0975L369.888 80.2137C370.282 80.7559 370.67 81.2916 371.051 81.8338L372.226 83.5186C372.62 84.0866 373.001 84.6482 373.382 85.2162C373.763 85.7843 374.144 86.3523 374.518 86.9268C374.893 87.5013 375.235 88.0241 375.59 88.5793L375.7 88.7536C376.023 89.257 376.345 89.767 376.662 90.2769L376.817 90.5287C377.146 91.058 377.463 91.5937 377.798 92.1295C378.134 92.6653 378.502 93.2978 378.851 93.8852C379.199 94.4726 379.542 95.06 379.877 95.6539C380.213 96.2478 380.555 96.8416 380.885 97.4355C381.214 98.0293 381.531 98.6296 381.873 99.2299C382.215 99.8303 382.518 100.431 382.835 101.031C383.151 101.631 383.481 102.238 383.778 102.845C384.397 104.058 385.002 105.278 385.592 106.505C386.182 107.731 386.756 108.966 387.316 110.21C387.876 111.449 388.42 112.697 388.95 113.954C389.479 115.21 390.015 116.529 390.558 117.911C391.272 119.752 391.957 121.609 392.611 123.481C393.076 124.815 393.526 126.16 393.96 127.516L394.387 128.884C394.645 129.723 394.897 130.569 395.142 131.414C395.323 132.015 395.491 132.621 395.659 133.235C395.827 133.848 396.007 134.526 396.175 135.171C396.191 135.208 396.201 135.247 396.208 135.287C396.328 135.718 396.444 136.169 396.556 136.643C396.679 137.114 396.802 137.592 396.911 138.069C397.021 138.547 397.183 139.193 397.312 139.761C397.422 140.212 397.525 140.671 397.622 141.123C397.625 141.174 397.625 141.226 397.622 141.278C397.751 141.826 397.867 142.375 397.977 142.924L398.112 143.569L398.345 144.724C398.429 145.15 398.513 145.57 398.59 146.015C398.7 146.577 398.803 147.145 398.9 147.713C398.997 148.281 399.087 148.772 399.171 149.301C399.255 149.83 399.365 150.489 399.462 151.083L399.559 151.728C399.643 152.27 399.72 152.819 399.791 153.361C399.862 153.903 399.959 154.601 400.037 155.214C400.114 155.827 400.185 156.427 400.256 157.034C400.327 157.641 400.405 158.37 400.469 159.035C400.534 159.7 400.611 160.462 400.669 161.172C400.728 161.882 400.786 162.553 400.831 163.244C400.831 163.599 400.883 163.96 400.902 164.322C400.941 164.793 400.966 165.264 400.992 165.742C401.025 166.387 401.057 166.988 401.083 167.614C401.109 168.24 401.141 169.047 401.16 169.77C401.523 182.164 400.374 194.556 397.738 206.673Z" fill="#DDDDFF"/>
<path d="M197.444 309.642C175.354 309.642 153.322 299.314 134.81 280.111C117.033 261.656 104.287 236.572 100.716 212.979C95.9249 181.298 106.353 147.958 128.611 123.791C138.431 113.037 150.439 104.506 163.828 98.7716C177.782 92.804 192.959 90.2504 208.098 91.3226C238.118 93.3559 265.147 107.738 284.209 131.834C303.735 156.511 312.007 188.211 306.912 218.808C304.814 231.702 300.144 244.042 293.179 255.094C286.214 266.147 277.096 275.686 266.368 283.145C248.499 298.191 226.425 307.367 203.152 309.423C201.247 309.565 199.349 309.642 197.444 309.642ZM201.396 96.5705C189.223 96.5567 177.174 99.0209 165.985 103.813C153.313 109.251 141.952 117.337 132.666 127.528C111.525 150.482 101.62 182.131 106.192 212.179C109.595 234.668 121.792 258.654 138.813 276.302C157.733 295.932 180.43 305.75 202.739 303.936C224.905 301.975 245.925 293.219 262.926 278.865L263.139 278.697C273.296 271.657 281.93 262.643 288.525 252.194C295.121 241.744 299.543 230.074 301.527 217.878C306.363 188.831 298.492 158.68 279.928 135.21C261.848 112.346 236.206 98.7006 207.75 96.7706C205.615 96.6372 203.497 96.5705 201.396 96.5705Z" fill="#066420"/>
<path d="M397.927 131.079C392.25 111.606 383.126 93.3096 370.988 77.0571C358.683 60.5369 343.778 46.1228 326.853 34.3769C309.612 22.3839 290.531 13.2813 270.359 7.42745C250.271 1.64425 229.367 -0.789613 208.487 0.223721C190.201 1.12115 172.089 4.20713 154.538 9.41558C136.609 14.6895 119.364 22.0558 103.158 31.3624C86.9745 40.6359 72.0448 51.9422 58.7332 65.0057C45.3264 78.1647 33.9535 93.2452 24.9881 109.751C15.7597 126.873 9.45694 145.415 6.33992 164.612C2.90472 185.836 3.36317 207.434 6.98563 228.607C10.6081 249.779 18.3502 270.118 28.9399 288.857C39.917 308.358 53.7612 326.173 68.8321 342.672C84.7102 360.055 102.073 376.044 120.005 391.284C138.059 406.673 156.811 421.255 175.646 435.72C184.363 442.416 193.083 449.108 201.804 455.795C202.185 456.234 202.723 456.507 203.302 456.554C203.882 456.601 204.457 456.419 204.903 456.047C223.545 442.524 241.955 428.665 259.744 414.025C277.149 399.848 293.734 384.693 309.419 368.634C324.849 352.788 338.95 335.7 351.577 317.543C364.338 299.065 375.157 279.32 383.863 258.622C392.716 237.553 400.167 215.038 402.918 192.278C405.358 171.75 403.661 150.941 397.927 131.079ZM397.236 194.04C395.706 205.343 392.716 216.432 389.384 227.328C376.425 269.731 354.193 308.564 325.704 342.44C297.292 376.206 263.599 405.091 228.575 431.744C220.323 438.027 211.993 444.209 203.586 450.289C167.426 422.436 130.666 395.131 97.4114 363.793C65.7714 333.977 35.9717 299.566 20.6425 258.312C6.43677 220.08 5.5134 176.289 18.7699 137.669C30.7221 102.845 54.2842 72.842 83.6125 50.8693C112.899 29.0677 146.949 14.5344 182.956 8.4667C201.575 5.2219 220.561 4.63077 239.346 6.71095C259.85 9.14237 279.798 15.0034 298.358 24.049C334.46 41.5935 365.028 70.6537 382.733 106.827C391.447 124.519 396.682 143.72 398.153 163.386C398.897 173.608 398.59 183.88 397.236 194.04Z" fill="#066420"/>
<path fill-rule="evenodd" clip-rule="evenodd" d="M278.005 141.374C276.636 139.121 275.623 136.656 274.435 134.274C273.918 133.247 273.382 132.24 272.801 131.124C272.26 131.475 271.74 131.859 271.245 132.273C268.526 134.9 265.491 134.577 262.411 133.163C261.311 132.597 260.275 131.915 259.318 131.13C254.876 127.806 251.389 123.571 248.406 118.975C245.713 114.831 243.318 110.5 240.793 106.253C240.36 105.53 240.102 104.594 238.94 104.839C234.794 110.448 230.726 113.011 224.979 113.147C215.294 113.373 207.325 110.061 201.947 101.67C196.826 93.685 193.475 85.0418 192.539 75.5336C192.337 74.614 192.056 73.7134 191.699 72.8419C190.104 74.1329 188.852 75.0753 187.676 76.0694C178.623 83.9553 169.138 91.3318 159.265 98.1647C152.401 102.89 145.182 107.079 137.382 109.926C128.51 113.153 119.612 116.994 109.468 114.735C108.66 116.845 107.782 118.756 107.201 120.757C104.278 130.957 102.994 141.557 103.398 152.16C103.598 158.561 105.628 164.77 109.248 170.054C118.088 183.364 130.053 193.04 144.259 199.966C152.711 204.091 161.848 206.272 171.114 207.77C180.561 209.293 190.098 209.622 199.629 209.635C209.708 209.635 219.762 209.054 229.59 206.569C245.442 202.561 259.848 195.919 271.258 183.764C278.199 176.367 284.082 168.272 288.175 158.951C289.008 157.053 290.003 155.201 290.151 152.819C284.353 150.773 280.963 146.267 278.005 141.374ZM154.674 141.626C153.816 141.836 152.917 141.815 152.069 141.564C151.222 141.314 150.456 140.843 149.85 140.199C147.765 138.043 146.829 135.378 147.565 132.453C147.887 130.983 148.602 129.626 149.633 128.529C150.664 127.431 151.973 126.633 153.421 126.218C156.65 125.243 159.446 126.657 160.602 129.8C160.902 130.759 161.118 131.741 161.247 132.737C161.312 137.882 158.968 140.767 154.68 141.645L154.674 141.626ZM195.696 178C193.359 181.272 190.227 182.738 186.114 182.415C177.59 181.769 171.553 174.959 171.611 164.593C171.856 163.424 172.257 160.991 172.902 158.622C173.206 157.804 173.771 157.11 174.51 156.647C174.809 156.495 175.137 156.411 175.472 156.401C175.807 156.391 176.14 156.455 176.447 156.589C176.741 156.751 176.996 156.976 177.195 157.246C177.393 157.517 177.53 157.828 177.597 158.157C177.661 158.983 177.255 159.842 177.061 160.687C176.467 163.269 176.015 165.851 176.499 168.543C176.843 170.827 177.894 172.945 179.506 174.6C181.117 176.254 183.207 177.362 185.481 177.767C188.193 178.29 190.382 177.535 191.938 175.256C193.144 173.615 194.001 171.744 194.455 169.759C194.91 167.774 194.952 165.717 194.579 163.715C194.489 163.198 194.172 162.734 194.056 162.217C193.585 160.19 194.23 158.848 195.812 158.448C197.059 158.131 198.395 159.093 198.757 160.829C200.158 166.987 199.435 172.79 195.703 178.019L195.696 178ZM228.111 151.45C227.391 150.042 226.952 148.508 226.82 146.932C226.516 142.717 229.654 139.489 233.877 139.425C237.803 139.36 241.393 143.369 240.98 147.571C240.814 148.963 240.398 150.315 239.753 151.56C239.241 152.695 238.414 153.659 237.37 154.339C236.327 155.019 235.11 155.385 233.864 155.394C231.101 155.498 229.28 153.755 228.117 151.47L228.111 151.45Z" fill="#FFF6F9"/>
<path fill-rule="evenodd" clip-rule="evenodd" d="M291.938 148.062C288.335 147.416 286.495 145.292 284.765 143.078C280.89 138.153 278.462 132.492 276.499 126.605C276.091 125.076 275.57 123.579 274.943 122.126C274.757 121.739 274.464 121.413 274.099 121.186C273.734 120.96 273.312 120.842 272.882 120.846C272.452 120.851 272.033 120.978 271.673 121.213C271.313 121.447 271.027 121.78 270.849 122.171C270.094 123.739 269.765 125.514 269.087 127.128C268.053 129.555 266.2 130.22 263.973 128.736C261.875 127.428 259.971 125.833 258.316 123.998C255.302 120.55 252.55 116.882 250.083 113.024C246.035 106.44 241.611 99.9593 240.307 92.0649C240.249 91.7293 240.107 91.2709 239.862 91.1354C239.179 90.6584 238.394 90.3488 237.569 90.2317C237.079 90.2317 236.362 90.9805 236.155 91.5227C235.954 92.3682 235.861 93.2358 235.878 94.1047C235.703 96.0412 235.639 97.9776 235.322 99.8819C234.547 104.665 231.5 107.479 226.883 108.138C218.611 109.319 211.289 107.26 206.433 100.005C200.118 90.5674 196.295 80.2652 197.064 68.6528C197.173 66.9422 197.91 64.8831 195.701 64.0504C193.9 63.4049 192.841 65.0122 191.717 66.0902C180.471 76.8209 168.318 86.561 155.396 95.202C145.678 101.754 135.217 106.821 123.756 109.538C121.696 110.023 119.617 110.429 117.531 110.771C115.681 111.184 113.744 110.89 112.101 109.945C112.293 109.143 112.537 108.354 112.83 107.583C113.256 106.614 113.825 105.717 114.315 104.775C117.544 98.5263 121.657 92.7943 124.97 86.5588C128.605 79.6908 134.01 73.9588 139.821 68.7238C145.747 63.4376 152.053 58.5941 158.689 54.2324C168.44 47.7763 179.616 43.7886 191.252 42.6135C200.215 41.6194 209.197 41.1288 218.191 42.3488C228.529 43.6643 238.67 46.2173 248.398 49.9528C251.348 51.1335 254.129 52.6984 256.67 54.6068C260.337 57.3437 263.734 60.455 267.156 63.5017C269.767 65.8799 272.015 68.629 273.826 71.6608C279.747 81.2916 285.346 91.0838 289.917 101.438C292.627 107.59 294.148 114.2 294.399 120.919C294.554 124.792 294.638 128.665 294.592 132.537C294.554 136.243 294.321 139.922 292.771 143.421C292.229 144.666 292.261 146.151 291.938 148.062Z" fill="#32B574"/>
<path fill-rule="evenodd" clip-rule="evenodd" d="M253.487 286.372C250.988 280.156 248.238 274.03 245.978 267.724C241.838 256.097 237.006 244.729 231.507 233.68C228.589 227.871 226.167 221.777 223.507 215.819C223.094 214.896 222.648 213.992 222.125 212.889C208.429 214.825 194.85 214.051 181.529 213.921C180.083 215.413 180.076 217.039 179.766 218.582C178.63 224.295 177.422 229.988 176.318 235.7C175.027 242.452 173.735 249.211 172.56 255.988C171.507 262.075 170.72 268.208 169.661 274.288C168.311 281.937 166.904 289.58 165.509 297.229C177.086 302.774 189.717 305.588 202.96 304.517C221.068 302.907 238.505 296.886 253.746 286.979L253.487 286.372ZM210.748 265.503C210.309 266.269 209.792 266.988 209.204 267.646C207.093 270.06 203.89 271.519 200.468 268.44C195.625 264.102 190.194 260.358 186.953 254.491C186.026 252.996 185.22 251.429 184.544 249.805C183.987 248.323 183.682 246.759 183.64 245.176C183.589 240.568 186.223 237.76 190.827 237.986C193.752 238.128 196.639 239.128 200.177 239.877C200.671 238.824 201.23 237.802 201.85 236.817C202.699 235.484 203.712 234.264 204.865 233.183C208.739 229.91 213.795 231.053 215.778 235.662C216.465 237.283 216.867 239.01 216.966 240.768C217.444 249.637 215.016 257.815 210.748 265.503Z" fill="#FFD152"/>
<path fill-rule="evenodd" clip-rule="evenodd" d="M296.846 177.309C298.586 176.835 300.442 177.067 302.012 177.954C309.117 181.647 314.794 187.593 318.154 194.86C319.155 197.142 319.393 199.687 318.832 202.115C318.406 204.445 316.676 205.511 314.564 204.542C312.852 203.65 311.213 202.622 309.663 201.47C308.275 200.547 307.177 198.597 305.143 199.843C303.419 200.889 304.123 202.67 304.317 204.187C304.562 206.124 304.788 208.06 304.007 209.926C303.613 210.862 302.715 211.365 301.889 210.933C300.472 210.263 299.166 209.381 298.015 208.318C296.287 206.785 295.047 204.779 294.45 202.548C294.295 201.87 294.173 201.044 293.721 200.611C293.152 200.069 292.184 199.507 291.519 199.63C291.123 199.766 290.762 199.988 290.463 200.281C290.164 200.573 289.933 200.929 289.788 201.321C289.472 202.277 289.665 203.393 289.633 204.445C289.564 210.498 287.471 216.354 283.686 221.08C280.619 224.953 279.037 224.688 277.106 220.208C274.188 213.424 274.588 206.427 275.815 199.404C276.281 197.34 276.883 195.309 277.616 193.324C278.411 190.813 279.999 189.451 282.621 188.444C288.49 186.294 293.921 183.273 296.846 177.309Z" fill="#32B574"/>
<path fill-rule="evenodd" clip-rule="evenodd" d="M83.8901 144.073C84.1864 144.479 84.4457 144.911 84.665 145.364C87.1149 151.825 90.9931 157.651 96.0102 162.405C96.7194 163.074 97.2561 163.905 97.5743 164.827C97.8925 165.748 97.9828 166.734 97.8376 167.698C97.4421 171.909 96.8322 176.097 96.0102 180.246C95.5595 182.133 94.7242 183.906 93.5565 185.455C91.6193 188.141 89.1398 188.102 86.8669 185.72C85.0718 183.835 84.3873 181.479 83.9676 179.026C83.6964 177.471 83.7158 175.857 83.4252 174.301C83.0507 172.307 80.9199 171.668 79.3572 173.062C78.4403 173.882 77.7236 174.927 76.7744 175.676C76.4547 175.913 76.082 176.068 75.6887 176.127C75.2953 176.186 74.8935 176.148 74.5182 176.016C74.1429 175.885 73.8057 175.663 73.536 175.371C73.2663 175.078 73.0723 174.724 72.9711 174.34C72.1426 170.889 72.4646 167.263 73.888 164.012C74.3908 163.095 75.0585 162.279 75.8575 161.604C76.5032 160.997 77.2974 160.591 77.9625 160.016C79.312 158.848 79.6349 157.292 78.8019 156.331C78.3167 155.809 77.6662 155.47 76.9602 155.373C76.2543 155.275 75.5363 155.424 74.9276 155.795C74.0063 156.316 73.1408 156.93 72.3448 157.628C69.6973 159.881 66.7335 159.687 63.9053 158.377C62.8187 157.875 61.8791 157.103 61.1767 156.135C60.4742 155.166 60.0325 154.033 59.8938 152.845C59.7551 151.657 59.924 150.453 60.3845 149.348C60.845 148.244 61.5815 147.276 62.5235 146.538C64.3996 145.234 66.4884 144.267 68.6965 143.679C72.9647 142.317 78.7373 142.607 83.8901 144.073Z" fill="#32B574"/>
<path fill-rule="evenodd" clip-rule="evenodd" d="M89.6577 242.626C86.2936 247.571 79.972 251.134 74.2316 251.018C74.6836 249.83 75.0258 248.72 75.523 247.687C76.0202 246.654 76.9049 245.596 77.2406 244.46C77.3092 244.051 77.2943 243.633 77.1966 243.23C77.0989 242.827 76.9206 242.448 76.6724 242.116C76.4201 241.89 76.1175 241.727 75.7897 241.64C75.4618 241.554 75.1181 241.547 74.7869 241.619C73.6448 242.058 72.5281 242.56 71.4421 243.123C69.6341 243.885 69.6212 243.853 66.4895 241.884C67.3433 241.033 68.2678 240.255 69.2532 239.56C70.2928 238.915 71.6229 238.766 72.6044 238.076C72.9286 237.815 73.1878 237.483 73.3615 237.106C73.5352 236.728 73.6187 236.316 73.6053 235.9C73.4607 235.515 73.233 235.166 72.9384 234.878C72.6438 234.59 72.2895 234.371 71.9006 234.235C71.1322 233.957 70.1636 234.274 69.3177 234.235C68.4439 234.2 67.577 234.064 66.7349 233.828C66.132 233.682 65.5928 233.345 65.1981 232.866C64.8034 232.388 64.5746 231.795 64.5459 231.175C64.5846 230.059 65.592 229.103 67.1288 228.987C68.53 228.884 69.957 229.123 71.3388 228.929C72.1723 228.793 72.9251 228.351 73.4503 227.69C74.1606 226.683 73.5342 225.708 72.7594 224.901C71.2326 223.454 69.7842 221.926 68.4202 220.324C67.4387 219.085 66.8705 217.542 68.149 215.922C70.564 215.554 72.5463 216.845 74.6061 217.678C76.666 218.511 78.9582 219.117 80.1464 221.422C80.4048 221.9 80.8421 222.256 81.3626 222.412C81.883 222.568 82.4441 222.511 82.9229 222.255C83.4025 222.023 83.8018 221.653 84.0699 221.193C84.338 220.733 84.4625 220.204 84.4274 219.673C84.4039 218.266 84.5011 216.86 84.718 215.47C84.944 214.328 85.5574 213.256 86.1838 211.688C87.1007 212.579 87.8626 213.037 88.2049 213.715C88.6349 214.675 88.9325 215.689 89.0895 216.729C90.4016 223.115 90.78 229.657 90.213 236.152C89.9741 238.198 89.8385 240.296 89.6577 242.626Z" fill="#FCE8EF"/>
<path fill-rule="evenodd" clip-rule="evenodd" d="M275.843 297.765C276.179 295.073 277.954 293.337 279.853 291.787C283.129 289.115 286.482 286.533 289.913 284.041C291.527 282.867 293.548 282.305 295.453 283.086C300.832 285.294 306.23 287.514 310.828 291.213C311.143 291.595 311.383 292.033 311.538 292.504C311.37 292.93 311.338 293.356 311.112 293.53C309.394 294.821 308.529 296.358 309.407 298.559C309.73 299.379 309.874 300.26 309.827 301.141C309.769 301.935 309.304 302.696 308.878 303.871C307.115 302.632 305.752 301.528 304.248 300.644C303.344 300.15 302.339 299.871 301.31 299.83C301 299.841 300.697 299.921 300.422 300.064C300.148 300.207 299.909 300.41 299.723 300.658C299.537 300.906 299.409 301.192 299.349 301.495C299.288 301.799 299.296 302.112 299.373 302.412C299.605 303.258 300.083 304.026 300.361 304.859C300.664 305.788 300.444 306.795 299.566 307.105C299.163 307.218 298.741 307.245 298.326 307.186C297.912 307.127 297.514 306.983 297.158 306.763C296.176 306.072 295.505 304.968 294.627 304.116C294.388 303.851 294.088 303.647 293.754 303.521C293.42 303.395 293.06 303.351 292.705 303.393C292.35 303.434 292.011 303.56 291.715 303.761C291.419 303.961 291.175 304.229 291.004 304.542C290.462 305.433 290.152 306.479 289.661 307.402C289.17 308.325 288.505 309.338 287.265 309.048C286.026 308.757 285.974 307.486 285.884 306.466C285.793 305.446 285.748 304.349 285.729 303.29C285.729 302.412 285.793 301.528 285.729 300.644C285.535 296.635 283.934 295.57 280.35 297.08C278.955 297.661 277.664 298.785 275.843 297.765Z" fill="#FCE8EF"/>
<path fill-rule="evenodd" clip-rule="evenodd" d="M299.43 134.467C303.162 132.718 305.693 133.893 307.947 136.288C311.175 139.728 312.06 144.034 312.215 148.494C312.46 155.523 308.928 164.541 299.41 167.859C297.234 168.524 294.954 168.789 292.682 168.64C290.571 168.575 289.699 166.807 290.525 164.844C291.61 162.262 292.856 159.68 293.928 157.098C296.594 150.744 298.277 144.02 298.92 137.159C298.991 136.333 299.236 135.487 299.43 134.467Z" fill="#FCE8EF"/>
<path fill-rule="evenodd" clip-rule="evenodd" d="M98.7091 142.485C97.6437 142.13 97.0109 142.11 96.7333 141.794C95.4806 140.329 94.0923 138.909 93.1883 137.23C89.0686 129.555 88.7135 121.467 91.122 113.211C91.9248 110.487 93.5761 108.09 95.8357 106.369C96.6537 105.692 97.6354 105.241 98.6825 105.062C99.7296 104.883 100.805 104.982 101.802 105.349C103.184 105.814 104.314 106.595 104.747 108.112C105.037 109.119 105.36 110.119 105.754 111.398C101.402 121.067 99.7681 131.627 98.7091 142.485Z" fill="#FCE8EF"/>
<path fill-rule="evenodd" clip-rule="evenodd" d="M287.555 171.674L291.965 173.804C292.766 175.495 291.966 176.748 291.042 177.761C288.281 180.731 284.804 182.943 280.943 184.184C280.201 184.436 279.277 184.139 278.464 184.1C278.421 183.846 278.408 183.588 278.425 183.332C278.483 182.99 278.604 182.662 278.78 182.363C281.303 178.994 283.849 175.635 286.419 172.287C286.606 172.023 287.013 171.945 287.555 171.674Z" fill="#F2CB07"/>
<path fill-rule="evenodd" clip-rule="evenodd" d="M99.181 158.441C93.2921 153.71 90.593 147.939 88.1328 140.935C91.3162 141.775 91.9361 144.053 93.5181 145.183L98.3416 148.636C98.5934 151.593 98.8581 154.659 99.181 158.441Z" fill="#F2CB07"/>
<path fill-rule="evenodd" clip-rule="evenodd" d="M205.078 264.987C204.484 264.909 204.057 264.987 203.786 264.806C198.472 261.004 193.455 256.911 190.226 251.057C188.935 248.72 187.708 246.383 188.799 243.311C192.118 241.846 195.082 242.73 197.762 245.105C198.801 246.035 199.699 247.152 200.784 248.023C201.072 248.224 201.405 248.352 201.754 248.394C202.104 248.436 202.458 248.391 202.785 248.263C203.113 248.135 203.404 247.929 203.633 247.662C203.861 247.395 204.021 247.075 204.096 246.732C204.264 245.699 204.167 244.621 204.296 243.582C204.507 241.284 205.501 239.128 207.112 237.476C207.869 236.795 208.834 236.39 209.85 236.327C211.038 236.268 211.619 237.366 211.832 238.437C212.144 239.807 212.324 241.203 212.368 242.607C212.332 249.848 210.369 256.948 206.679 263.179C206.215 263.84 205.678 264.447 205.078 264.987Z" fill="#F27405"/>
<path fill-rule="evenodd" clip-rule="evenodd" d="M276.771 163.256C275.531 154.523 265.697 149.933 257.955 148.959C256.488 148.781 255.004 148.809 253.545 149.043C249.545 149.312 245.757 150.933 242.8 153.638C234.315 161.791 237.957 177.774 247.856 183.028C260.344 189.664 278.773 177.322 276.771 163.256Z" fill="#F9BD70"/>
<path fill-rule="evenodd" clip-rule="evenodd" d="M139.944 144.737C139.586 142.481 138.747 140.328 137.484 138.424C136.35 136.692 134.865 135.216 133.126 134.091C131.387 132.966 129.432 132.218 127.387 131.893C125.341 131.568 123.25 131.675 121.248 132.206C119.246 132.737 117.378 133.681 115.762 134.977C110.493 139.102 108.091 146.745 108.317 153.219C108.582 160.791 113.393 168.317 121.296 169.55C128.631 170.699 135.502 168.343 139.279 161.662C142.133 156.64 142.179 150.095 139.944 144.737Z" fill="#F9BD70"/>
<path fill-rule="evenodd" clip-rule="evenodd" d="M320.603 191.641C316.946 184.524 311.32 178.606 304.395 174.593C303.207 173.896 302.038 173.167 300.611 172.302C301.677 171.656 302.407 171.166 303.194 170.74C309.981 166.951 313.945 161.057 315.237 153.563C316.412 146.76 315.618 140.143 311.253 134.411C308.67 131.022 305.5 128.699 300.921 128.989C300.159 128.986 299.398 128.937 298.642 128.841C298.558 127.808 298.461 126.975 298.423 126.143C297.983 116.55 296.569 107.165 292.43 98.3862C289.718 92.6413 286.845 86.9739 284.101 81.2483C280.345 73.2529 275.213 65.9795 268.939 59.7598C260.048 50.981 249.91 44.7455 237.674 41.815C227.872 39.4654 218.102 37.1868 207.971 37.0125C201.078 36.9189 194.187 37.3505 187.36 38.3035C176.176 39.7946 165.638 43.2351 156.275 49.619C150.147 53.7889 144.123 58.146 138.363 62.7936C130.817 68.955 124.378 76.3573 119.321 84.6824C115.898 90.2336 112.812 95.9914 109.551 101.64C109.035 102.53 108.402 103.35 107.614 104.506C106.891 103.925 106.4 103.505 105.877 103.124C100.253 98.9865 94.4995 99.4642 89.7793 104.506C86.6605 107.843 85.0269 111.896 84.3359 116.35C83.3994 121.944 83.7125 127.675 85.2529 133.133C85.4592 134.007 85.6123 134.893 85.7113 135.786L82.9283 138.93C80.6037 138.639 78.686 138.349 76.7682 138.181C71.4615 137.688 66.1199 138.631 61.3033 140.911C58.3201 142.312 56.0085 144.436 54.8462 147.579C52.2633 154.519 55.7696 161.251 62.9628 163.362C64.4157 163.794 66.1914 163.465 67.2568 165.085C67.1116 165.771 67.0081 166.465 66.9469 167.164C66.8565 169.449 66.5078 171.779 66.8242 174.012C67.5732 179.273 70.8276 181.416 76.2258 180.564C76.7165 180.487 77.2202 180.467 77.9628 180.403C78.4535 181.739 78.8861 183.056 79.4156 184.334C80.2662 186.479 81.6244 188.386 83.3738 189.892C86.7961 192.777 91.0191 192.777 94.4672 189.892C96.2775 188.444 97.6095 186.485 98.2898 184.269C99.1745 181.236 99.7943 178.118 100.479 175.026C100.873 173.238 100.589 171.269 101.983 169.275C102.79 170.443 103.346 171.314 103.959 172.141C106.168 175.116 108.344 178.124 110.629 181.042C115.033 186.671 120.774 190.821 126.327 195.185C132.759 200.177 139.954 204.1 147.635 206.804C154.292 209.159 161.141 210.932 168.104 212.103C168.975 212.225 169.838 212.4 170.687 212.626C171.611 212.897 172.844 212.587 173.419 214.162C172.03 216.389 170.649 218.829 169.06 221.134C163.894 228.583 158.173 235.489 150.651 240.712C141.63 247.005 131.596 249.794 120.599 248.503C112.127 247.502 104.14 244.552 96.1396 241.783C93.9184 241.015 93.4922 240.182 93.5568 237.775C93.5955 236.716 93.7957 235.664 93.8344 234.605C94.156 227.887 93.5696 221.156 92.091 214.595C91.7628 213.044 91.1895 211.556 90.3927 210.186C87.8099 205.965 83.206 205.932 80.5198 210.057C79.6804 211.348 79.1121 212.807 78.2727 214.459C76.4712 213.769 74.8633 213.097 73.2168 212.523C71.5842 211.863 69.8938 211.358 68.1673 211.012C64.5706 210.477 61.9297 212.51 61.4454 216.125C61.3208 217.346 61.4438 218.58 61.807 219.752C62.3178 221.279 62.9127 222.777 63.5892 224.238C60.8061 225.678 58.7786 227.602 58.4234 230.693C58.0683 233.785 60.3606 235.806 62.0201 237.871C61.652 238.549 61.3744 239.007 61.1548 239.485C59.5147 243.145 60.0958 244.978 63.6214 246.779C65.0503 247.434 66.5115 248.016 67.9994 248.522C68.1312 248.847 68.2307 249.184 68.2964 249.529C68.3287 249.871 68.1996 250.226 68.2125 250.581C68.2964 254.971 70.7437 257.036 74.9989 256.21C76.2133 255.968 77.3993 255.6 78.5374 255.113C83.7419 252.911 88.9915 250.749 92.3105 245.662C93.5374 245.992 94.5447 246.237 95.5391 246.534C102.293 248.574 108.905 251.052 115.879 252.382C129.839 255.048 142.515 252.227 154.015 243.952C159.172 240.215 163.765 235.756 167.652 230.713C168.944 229.08 169.99 227.208 172.14 226.02C172.201 226.615 172.201 227.214 172.14 227.808C168.834 241.551 166.723 255.513 164.514 269.462C163.158 277.976 161.563 286.451 159.994 294.94C161.415 295.727 162.848 296.463 164.308 297.167C165.702 289.517 167.11 281.875 168.46 274.226C169.519 268.145 170.306 262.013 171.359 255.926C172.528 249.148 173.813 242.37 175.117 235.638C176.221 229.925 177.429 224.232 178.565 218.519C178.875 216.977 178.881 215.35 180.328 213.859C193.649 213.988 207.228 214.769 220.924 212.826C221.447 213.93 221.892 214.834 222.306 215.757C224.966 221.715 227.387 227.789 230.306 233.618C235.806 244.675 240.638 256.052 244.777 267.687C247.037 273.993 249.787 280.119 252.286 286.335L252.519 286.916C253.849 286.064 255.166 285.167 256.451 284.237C253.952 278.021 251.421 271.824 248.909 265.615C245.681 257.598 242.607 249.51 239.178 241.583C235.749 233.656 231.94 225.91 228.317 218.048C228.053 217.282 227.848 216.496 227.704 215.699C228.518 215.922 229.31 216.222 230.067 216.596C232.857 218.455 235.685 220.262 238.345 222.296C249.904 231.145 260.015 241.499 269.417 252.55C275.744 259.954 280.743 268.397 284.191 277.505C284.569 278.719 284.878 279.954 285.114 281.203C283.003 282.753 280.975 284.14 279.058 285.664C276.964 287.269 274.966 288.993 273.072 290.828C271.287 292.581 270.161 294.894 269.882 297.38C269.533 300.697 271.296 302.873 274.647 303.008C276.227 302.987 277.803 302.869 279.367 302.653C279.748 304.874 279.962 306.972 280.478 308.999C281.653 313.627 285.85 315.286 289.912 312.768C290.884 312.092 291.816 311.359 292.701 310.574C295.013 311.458 297.028 312.671 299.475 312.168C301.922 311.664 302.788 309.218 304.15 307.649C310.517 309.037 312.996 307.198 313.371 301.078C313.387 300.902 313.387 300.725 313.371 300.549C313.119 298.802 313.549 297.024 314.572 295.585C316.244 293.229 315.456 290.789 313.79 288.762C312.768 287.544 311.545 286.509 310.174 285.703C307.592 284.179 304.88 282.895 302.232 281.487C298.326 279.403 294.354 277.511 289.596 277.931C288.95 276.517 288.375 275.252 287.813 273.98C285.433 268.276 282.505 262.815 279.07 257.675C275.018 251.888 270.532 246.415 265.652 241.305C255.321 230.332 244.505 220.004 231.681 211.935C231.468 211.8 231.436 211.374 231.229 210.844C232.385 210.451 233.528 210.05 234.671 209.683C235.814 209.315 237.047 208.985 238.223 208.598C239.398 208.211 240.56 207.798 241.709 207.339C242.859 206.881 243.982 206.378 245.119 205.881C246.255 205.384 247.385 204.899 248.509 204.383C249.632 203.867 250.749 203.344 251.847 202.782C252.945 202.221 254.043 201.64 255.121 201.033C256.199 200.426 257.258 199.787 258.317 199.155C259.376 198.522 260.435 197.864 261.475 197.218C262.514 196.573 263.547 195.869 264.535 195.127C265.523 194.384 266.473 193.577 267.383 192.758C268.293 191.938 269.172 191.047 270.089 190.221C270.896 189.491 271.535 188.439 273.265 188.284C272.671 190.059 272.245 191.376 271.78 192.68C269.913 198.027 268.986 203.658 269.042 209.321C269.118 214.102 270.193 218.814 272.2 223.154C272.48 223.803 272.811 224.429 273.188 225.026C275.868 229.209 279.71 229.854 283.455 226.685C284.57 225.813 285.542 224.772 286.335 223.599C288.007 220.921 289.518 218.126 290.99 215.324C291.61 213.976 292.16 212.598 292.637 211.193C293.812 212.103 294.723 212.91 295.736 213.568C296.752 214.256 297.833 214.84 298.965 215.311C302.497 216.686 305.254 215.653 306.894 212.303C307.54 210.903 307.979 209.373 308.56 207.785C310.362 208.43 311.976 209.076 313.648 209.502C314.76 209.847 315.952 209.841 317.06 209.484C318.168 209.127 319.14 208.436 319.841 207.507C320.906 206.122 321.703 204.55 322.191 202.873C323.302 198.98 322.43 195.191 320.603 191.641ZM88.9851 236.103C88.7785 238.181 88.6493 240.273 88.4685 242.603C85.0979 247.541 78.8151 251.11 73.0359 250.994C73.4879 249.807 73.8302 248.696 74.3274 247.657C74.8246 246.618 75.7092 245.572 76.045 244.43C76.1131 244.022 76.0978 243.605 76.0001 243.203C75.9025 242.801 75.7244 242.424 75.4768 242.093C75.2254 241.867 74.924 241.704 74.5972 241.618C74.2705 241.531 73.9279 241.524 73.5977 241.596C72.4551 242.033 71.3383 242.535 70.2529 243.1C68.4385 243.855 68.4256 243.829 65.2938 241.854C66.1492 241.004 67.0736 240.227 68.0575 239.53C69.0971 238.885 70.4273 238.743 71.4088 238.052C71.7335 237.791 71.9934 237.458 72.1681 237.079C72.3428 236.701 72.4277 236.287 72.4161 235.87C72.2688 235.486 72.0394 235.138 71.7439 234.852C71.4483 234.565 71.0937 234.347 70.7049 234.211C69.9365 233.934 68.9744 234.25 68.1221 234.211C67.2482 234.177 66.3814 234.04 65.5392 233.805C64.9369 233.658 64.3982 233.32 64.0037 232.842C63.6092 232.364 63.3799 231.771 63.3502 231.152C63.389 230.035 64.3963 229.073 65.9331 228.964C67.3343 228.86 68.7678 229.099 70.1432 228.905C70.9766 228.769 71.7294 228.327 72.2546 227.666C72.9714 226.659 72.345 225.684 71.5637 224.878C70.0402 223.427 68.5919 221.899 67.2245 220.301C66.2495 219.055 65.6748 217.512 66.9533 215.899C69.3683 215.524 71.3571 216.815 73.4105 217.648C75.4638 218.481 77.7626 219.087 78.9572 221.392C79.2132 221.87 79.6489 222.227 80.1684 222.385C80.6879 222.542 81.2486 222.487 81.7273 222.231C82.2085 222.001 82.6094 221.632 82.8777 221.172C83.1461 220.711 83.2695 220.181 83.2318 219.649C83.2079 218.243 83.3051 216.837 83.5224 215.447C83.7484 214.298 84.3618 213.233 84.9946 211.664C85.905 212.549 86.667 213.013 87.0092 213.685C87.4453 214.645 87.7431 215.662 87.8938 216.706C89.1928 223.085 89.5604 229.618 88.9851 236.103ZM288.724 284.005C290.338 282.837 292.366 282.269 294.264 283.056C299.643 285.264 305.048 287.478 309.639 291.183C309.956 291.564 310.197 292.002 310.349 292.474C310.181 292.893 310.155 293.326 309.923 293.494C308.212 294.785 307.34 296.327 308.224 298.529C308.543 299.351 308.686 300.23 308.644 301.111C308.58 301.905 308.121 302.673 307.689 303.847C305.932 302.608 304.563 301.498 303.059 300.62C302.156 300.123 301.15 299.845 300.121 299.807C299.812 299.819 299.509 299.899 299.235 300.043C298.961 300.186 298.723 300.389 298.537 300.637C298.352 300.884 298.223 301.17 298.162 301.473C298.101 301.776 298.108 302.089 298.184 302.389C298.416 303.228 298.894 304.002 299.172 304.835C299.449 305.668 299.255 306.772 298.384 307.081C297.979 307.193 297.556 307.219 297.141 307.161C296.725 307.102 296.327 306.958 295.969 306.739C294.987 306.049 294.316 304.945 293.438 304.086C293.199 303.821 292.899 303.617 292.565 303.491C292.231 303.365 291.871 303.321 291.516 303.362C291.161 303.404 290.822 303.53 290.526 303.73C290.23 303.931 289.986 304.199 289.815 304.512C289.273 305.41 288.963 306.449 288.472 307.372C287.981 308.295 287.323 309.308 286.076 309.024C284.83 308.74 284.785 307.462 284.695 306.442C284.604 305.422 284.565 304.325 284.54 303.266C284.54 302.389 284.604 301.498 284.54 300.62C284.339 296.611 282.745 295.546 279.161 297.057C277.74 297.651 276.442 298.774 274.641 297.754C274.977 295.069 276.752 293.326 278.651 291.783C281.94 289.098 285.297 286.505 288.724 284.005ZM298.235 134.444C301.967 132.694 304.499 133.869 306.752 136.264C309.981 139.704 310.865 144.01 311.02 148.47C311.272 155.5 307.734 164.517 298.222 167.835C296.046 168.502 293.766 168.769 291.494 168.623C289.376 168.558 288.504 166.789 289.331 164.821C290.416 162.239 291.668 159.689 292.74 157.075C295.404 150.72 297.085 143.996 297.725 137.135C297.803 136.303 298.042 135.463 298.235 134.444ZM289.841 177.737C287.081 180.708 283.604 182.92 279.742 184.16C278.999 184.411 278.076 184.114 277.262 184.069C277.226 183.817 277.215 183.562 277.23 183.308C277.291 182.966 277.411 182.639 277.585 182.339C280.116 178.97 282.663 175.611 285.224 172.263C285.411 172.018 285.818 171.94 286.361 171.663L290.771 173.799C291.571 175.471 290.79 176.724 289.847 177.737H289.841ZM111.624 107.565C112.05 106.597 112.618 105.693 113.109 104.757C116.338 98.5024 120.451 92.7769 123.763 86.5349C127.405 79.6733 132.803 73.9413 138.615 68.6999C144.546 63.4148 150.856 58.5714 157.495 54.2085C167.245 47.7496 178.422 43.7617 190.059 42.5896C199.021 41.5891 208.003 41.0985 217.004 42.3185C227.341 43.6408 237.482 46.1958 247.211 49.9289C250.159 51.1086 252.939 52.6735 255.476 54.5829C259.144 57.3133 262.54 60.3924 265.962 63.4778C268.575 65.8553 270.822 68.6045 272.633 71.6369C278.554 81.2677 284.159 91.0599 288.73 101.414C291.441 107.568 292.96 114.181 293.205 120.901C293.367 124.774 293.444 128.647 293.399 132.52C293.367 136.225 293.134 139.898 291.584 143.397C291.036 144.623 291.074 146.101 290.745 148.012C287.142 147.366 285.308 145.243 283.571 143.035C279.697 138.11 277.269 132.449 275.306 126.562C274.9 125.02 274.382 123.51 273.756 122.044C273.568 121.659 273.274 121.335 272.91 121.11C272.545 120.885 272.124 120.768 271.695 120.773C271.266 120.778 270.848 120.904 270.488 121.137C270.128 121.37 269.842 121.7 269.662 122.089C268.9 123.664 268.578 125.439 267.893 127.053C266.866 129.48 265.007 130.145 262.779 128.654C260.685 127.344 258.781 125.752 257.123 123.922C254.112 120.472 251.36 116.804 248.89 112.949C244.841 106.39 240.424 99.9161 239.133 92.0152C239.106 91.6607 238.947 91.3292 238.687 91.0857C238.004 90.6122 237.219 90.305 236.395 90.1884C235.904 90.1884 235.188 90.9308 234.981 91.4794C234.78 92.325 234.687 93.1925 234.703 94.0614C234.529 95.9979 234.465 97.9344 234.155 99.8321C233.373 104.622 230.325 107.436 225.715 108.094C217.443 109.276 210.121 107.21 205.265 99.9612C198.944 90.5241 195.121 80.222 195.89 68.6031C195.999 66.899 196.742 64.8334 194.527 64.0071C192.726 63.3616 191.667 64.9689 190.549 66.0404C179.301 76.7733 167.146 86.5156 154.222 95.1587C144.536 101.711 134.049 106.778 122.582 109.489C120.522 109.979 118.443 110.386 116.357 110.722C114.508 111.137 112.57 110.844 110.926 109.902C111.108 109.11 111.337 108.33 111.611 107.565H111.624ZM96.6626 167.654C96.265 171.866 95.6529 176.054 94.8288 180.203C94.3794 182.088 93.5439 183.859 92.3751 185.405C90.438 188.091 87.9584 188.058 85.6855 185.677C83.8904 183.792 83.2124 181.436 82.7862 178.983C82.515 177.421 82.5344 175.813 82.2438 174.258C81.8693 172.257 79.7385 171.624 78.1758 173.018C77.2654 173.832 76.5422 174.884 75.593 175.633C75.2728 175.869 74.8996 176.024 74.5059 176.083C74.1122 176.142 73.71 176.105 73.3343 175.973C72.9586 175.841 72.6209 175.619 72.3505 175.327C72.0802 175.035 71.8854 174.681 71.7833 174.297C70.9609 170.846 71.2827 167.221 72.7002 163.969C73.203 163.052 73.8706 162.236 74.6696 161.561C75.3153 160.948 76.116 160.547 76.7811 159.973C78.1242 158.805 78.447 157.249 77.6141 156.281C77.1274 155.761 76.4765 155.425 75.771 155.328C75.0654 155.232 74.3481 155.381 73.7398 155.751C72.8169 156.27 71.9512 156.885 71.1569 157.585C68.5095 159.831 65.5521 159.644 62.7174 158.327C61.6312 157.825 60.6922 157.052 59.9904 156.083C59.2887 155.114 58.8476 153.982 58.7095 152.793C58.5715 151.605 58.7411 150.401 59.202 149.297C59.663 148.193 60.3999 147.226 61.3421 146.489C63.092 145.133 65.3584 144.307 67.5086 143.635C71.7768 142.344 77.5495 142.596 82.7023 144.068C83.0014 144.472 83.2609 144.905 83.4772 145.359C85.9271 151.821 89.8053 157.646 94.8223 162.4C95.5244 163.066 96.0567 163.891 96.3746 164.805C96.6925 165.719 96.7869 166.696 96.6497 167.654H96.6626ZM86.9769 140.911C90.1668 141.744 90.7866 144.029 92.3622 145.159L97.1857 148.612C97.4375 151.562 97.7022 154.635 98.0315 158.417C92.0974 153.679 89.3984 147.915 86.9382 140.911H86.9769ZM97.5537 142.454C96.4883 142.099 95.8555 142.086 95.5778 141.764C94.3251 140.298 92.9369 138.878 92.0393 137.206C87.9132 129.525 87.5581 121.443 89.973 113.187C90.7692 110.46 92.4218 108.061 94.6868 106.345C95.5028 105.666 96.4834 105.215 97.5298 105.036C98.5762 104.857 99.6513 104.956 100.647 105.325C102.029 105.79 103.165 106.571 103.598 108.088C103.882 109.095 104.243 110.089 104.605 111.374C100.214 121.043 98.5739 131.603 97.515 142.454H97.5537ZM270.127 183.766C258.718 195.921 244.299 202.563 228.459 206.571C218.632 209.056 208.578 209.657 198.498 209.637C188.967 209.637 179.43 209.295 169.983 207.772C160.717 206.274 151.581 204.093 143.128 199.968C128.923 193.042 116.957 183.366 108.118 170.056C104.494 164.793 102.451 158.605 102.229 152.221C101.825 141.617 103.108 131.018 106.032 120.817C106.613 118.816 107.491 116.905 108.298 114.795C118.443 117.054 127.341 113.22 136.213 109.986C144.013 107.139 151.232 102.95 158.096 98.2248C167.969 91.392 177.454 84.0155 186.507 76.1295C187.683 75.1097 188.935 74.1931 190.53 72.9021C190.887 73.7735 191.168 74.6741 191.37 75.5938C192.306 85.1019 195.657 93.7451 200.778 101.73C206.156 110.121 214.157 113.433 223.81 113.207C229.557 113.071 233.625 110.509 237.771 104.899C238.933 104.654 239.191 105.59 239.624 106.313C242.149 110.56 244.544 114.892 247.237 119.036C250.22 123.632 253.694 127.866 258.149 131.19C259.106 131.975 260.142 132.657 261.242 133.224C264.322 134.637 267.357 134.96 270.076 132.333C270.571 131.919 271.09 131.535 271.632 131.184C272.213 132.301 272.749 133.308 273.265 134.334C274.454 136.703 275.467 139.169 276.836 141.434C279.794 146.308 283.184 150.813 289.008 152.86C288.859 155.241 287.865 157.094 287.032 158.992C282.912 168.248 277.03 176.343 270.089 183.74L270.127 183.766ZM317.704 202.13C317.277 204.467 315.547 205.532 313.435 204.564C311.725 203.671 310.088 202.644 308.541 201.491C307.146 200.562 306.048 198.612 304.021 199.858C302.297 200.91 303.001 202.692 303.194 204.209C303.44 206.145 303.666 208.082 302.884 209.941C302.491 210.883 301.593 211.387 300.766 210.954C299.352 210.28 298.046 209.399 296.892 208.34C295.164 206.806 293.922 204.8 293.321 202.569C293.166 201.891 293.05 201.059 292.598 200.633C292.023 200.097 291.061 199.529 290.396 199.658C290 199.792 289.638 200.013 289.338 200.305C289.038 200.596 288.806 200.951 288.659 201.343C288.349 202.298 288.537 203.421 288.511 204.473C288.44 210.527 286.344 216.383 282.557 221.108C279.497 224.981 277.915 224.716 275.984 220.236C273.059 213.452 273.466 206.449 274.693 199.432C275.165 197.369 275.766 195.339 276.494 193.352C277.288 190.834 278.877 189.479 281.498 188.472C287.31 186.296 292.734 183.308 295.704 177.311C297.444 176.835 299.301 177.067 300.87 177.956C307.975 181.649 313.653 187.595 317.013 194.862C318 197.144 318.228 199.683 317.665 202.104L317.704 202.13Z" fill="#066420"/>
<path fill-rule="evenodd" clip-rule="evenodd" d="M202.783 159.068C202.787 159.839 202.949 160.55 202.767 161.162C201.78 164.48 200.776 167.8 199.634 171.074C199.133 172.502 198.35 173.858 197.576 175.181C194.428 180.579 187.228 181.858 183.021 180.758C177.852 179.408 174.015 176.636 172.076 171.76C170.396 167.542 169.628 163.19 169.317 158.752C169.217 157.289 169.862 156.647 171.325 156.572C181.14 156.057 190.897 156.71 200.593 158.339C201.296 158.461 201.964 158.793 202.783 159.068Z" fill="#F9BD70"/>
<path fill-rule="evenodd" clip-rule="evenodd" d="M167.236 163.391C167.084 160.663 166.871 157.941 166.838 155.212C166.832 154.789 167.663 153.976 168.093 153.985C175.441 154.128 182.806 153.528 190.139 154.432C192.79 154.759 195.445 155.104 198.095 155.477C199.018 155.607 199.947 155.767 200.839 156.035C204.012 156.98 205.113 158.481 204.292 161.617C203.164 165.918 201.946 170.232 200.281 174.347C197.634 180.889 192.357 183.949 185.229 184.081C179.344 184.193 172.689 179.941 170.285 174.386C168.754 170.871 167.743 167.198 167.236 163.391ZM199.834 160.253C199.094 159.993 198.496 159.684 197.862 159.575C189.127 158.072 181.249 156.976 172.397 157.504C171.078 157.581 170.493 158.191 170.578 159.576C170.84 163.775 171.511 167.892 173.011 171.882C174.743 176.491 178.398 178.79 183.05 180.047C186.842 181.072 193.132 180.138 195.989 175.016C196.692 173.76 197.404 172.473 197.862 171.119C198.905 168.015 198.904 165.385 199.811 162.239C199.977 161.656 199.834 160.983 199.834 160.253Z" fill="#066420"/>
<path fill-rule="evenodd" clip-rule="evenodd" d="M233.871 139.438C237.79 139.373 241.387 143.382 240.974 147.591C240.803 148.98 240.388 150.329 239.747 151.573C239.235 152.708 238.408 153.673 237.364 154.352C236.32 155.032 235.104 155.398 233.858 155.407C231.075 155.485 229.254 153.742 228.092 151.457C227.369 150.05 226.93 148.515 226.8 146.939C226.523 142.743 229.661 139.522 233.871 139.438Z" fill="#066420"/>
<path fill-rule="evenodd" clip-rule="evenodd" d="M161.227 132.782C161.305 137.888 158.986 140.767 154.679 141.652C153.821 141.863 152.922 141.842 152.075 141.591C151.227 141.34 150.461 140.869 149.856 140.225C147.77 138.069 146.834 135.403 147.57 132.479C147.893 131.008 148.608 129.652 149.639 128.554C150.67 127.457 151.979 126.658 153.427 126.244C156.655 125.275 159.451 126.682 160.607 129.826C160.904 130.79 161.111 131.78 161.227 132.782Z" fill="#066420"/>
<path fill-rule="evenodd" clip-rule="evenodd" d="M216.965 240.781C216.866 239.023 216.464 237.295 215.777 235.675C213.794 231.066 208.725 229.923 204.864 233.196C203.711 234.276 202.698 235.497 201.849 236.83C201.229 237.815 200.67 238.837 200.176 239.89C196.638 239.141 193.751 238.14 190.826 237.998C186.229 237.773 183.588 240.58 183.639 245.189C183.681 246.772 183.986 248.336 184.543 249.817C185.219 251.442 186.025 253.009 186.952 254.504C190.181 260.371 195.624 264.115 200.467 268.453C203.889 271.519 207.092 270.073 209.203 267.659C209.791 267.001 210.308 266.282 210.747 265.516C215.015 257.815 217.443 249.637 216.965 240.781ZM206.698 263.212C206.229 263.866 205.685 264.464 205.077 264.993C204.483 264.922 204.057 264.993 203.786 264.819C198.471 261.017 193.454 256.924 190.226 251.063C188.934 248.727 187.707 246.396 188.805 243.317C192.118 241.852 195.081 242.736 197.761 245.118C198.807 246.048 199.698 247.165 200.783 248.029C201.071 248.232 201.405 248.361 201.755 248.404C202.105 248.446 202.46 248.402 202.789 248.274C203.118 248.146 203.409 247.939 203.639 247.671C203.868 247.403 204.027 247.083 204.102 246.738C204.264 245.712 204.167 244.634 204.302 243.595C204.511 241.298 205.502 239.142 207.111 237.489C207.87 236.807 208.837 236.402 209.855 236.34C211.037 236.281 211.625 237.379 211.831 238.45C212.146 239.82 212.328 241.216 212.374 242.62C212.343 249.862 210.384 256.965 206.698 263.199V263.212Z" fill="#066420"/>
</g>
<defs>
<filter id="filter0_d" x="0" y="0" width="408" height="498" filterUnits="userSpaceOnUse" color-interpolation-filters="sRGB">
<feFlood flood-opacity="0" result="BackgroundImageFix"/>
<feColorMatrix in="SourceAlpha" type="matrix" values="0 0 0 0 0 0 0 0 0 0 0 0 0 0 0 0 0 0 127 0"/>
<feOffset dy="4"/>
<feGaussianBlur stdDeviation="2"/>
<feColorMatrix type="matrix" values="0 0 0 0 0 0 0 0 0 0 0 0 0 0 0 0 0 0 0.25 0"/>
<feBlend mode="normal" in2="BackgroundImageFix" result="effect1_dropShadow"/>
<feBlend mode="normal" in="SourceGraphic" in2="effect1_dropShadow" result="shape"/>
</filter>
</defs>
</svg>
